<svg width="1510" height="186" viewBox="0 0 1510 186" fill="none" xmlns="http://www.w3.org/2000/svg">
<mask id="path-1-outside-1" maskUnits="userSpaceOnUse" x="-3" y="0" width="1516" height="186" fill="black">
<rect fill="white" x="-3" width="1516" height="186"/>
<path fill-rule="evenodd" clip-rule="evenodd" d="M0 3H248.5H1510V129.95H531.124L429.717 154.304C414.411 159.354 398.087 163.983 381.016 168.032C330.98 179.899 283.839 184.564 247.754 182.544H0V129.95V92.3187V73.7295V3Z"/>
</mask>
<path fill-rule="evenodd" clip-rule="evenodd" d="M0 3H248.5H1510V129.95H531.124L429.717 154.304C414.411 159.354 398.087 163.983 381.016 168.032C330.98 179.899 283.839 184.564 247.754 182.544H0V129.95V92.3187V73.7295V3Z" fill="url(#paint0_linear)"/>
<path d="M0 3V0C-1.65685 0 -3 1.34315 -3 3L0 3ZM1510 3H1513C1513 1.34315 1511.66 0 1510 0V3ZM1510 129.95V132.95C1511.66 132.95 1513 131.607 1513 129.95H1510ZM531.124 129.95V126.95C530.888 126.95 530.653 126.978 530.424 127.033L531.124 129.95ZM429.717 154.304L429.016 151.387C428.936 151.407 428.856 151.429 428.777 151.455L429.717 154.304ZM381.016 168.032L380.324 165.113L380.324 165.113L381.016 168.032ZM247.754 182.544L247.922 179.549C247.866 179.546 247.81 179.544 247.754 179.544V182.544ZM0 182.544H-3C-3 184.201 -1.65685 185.544 0 185.544L0 182.544ZM248.5 0H0V6H248.5V0ZM1510 0H248.5V6H1510V0ZM1513 129.95V3H1507V129.95H1513ZM531.124 132.95H1510V126.95H531.124V132.95ZM530.424 127.033L429.016 151.387L430.417 157.221L531.825 132.867L530.424 127.033ZM381.709 170.951C398.86 166.883 415.267 162.23 430.657 157.153L428.777 151.455C413.554 156.477 397.313 161.084 380.324 165.113L381.709 170.951ZM247.587 185.539C284.026 187.579 331.464 182.867 381.709 170.951L380.324 165.113C330.497 176.93 283.652 181.549 247.922 179.549L247.587 185.539ZM0 185.544H247.754V179.544H0V185.544ZM-3 129.95V182.544H3V129.95H-3ZM-3 92.3187V129.95H3V92.3187H-3ZM-3 73.7295V92.3187H3V73.7295H-3ZM-3 3V73.7295H3V3H-3Z" fill="#ECADAD" mask="url(#path-1-outside-1)"/>
<defs>
<linearGradient id="paint0_linear" x1="755" y1="3" x2="755" y2="92.7721" gradientUnits="userSpaceOnUse">
<stop stop-color="#FFDDDD"/>
<stop offset="1" stop-color="#FFFAFA"/>
</linearGradient>
</defs>
</svg>
